<svg width="2267" height="2333" viewBox="0 0 2267 2333" fill="none" xmlns="http://www.w3.org/2000/svg">
<mask id="path-1-inside-1_112_1126" fill="white">
<path d="M260.937 1155.5C276.296 937.844 372.611 733.831 530.906 583.655C689.201 433.479 897.997 348.029 1116.16 344.141C1334.32 340.252 1546.03 418.206 1709.58 562.645C1873.13 707.084 1976.65 907.534 1999.76 1124.5L1675.64 1159.02C1661.16 1023.07 1596.29 897.463 1493.81 806.957C1391.33 716.45 1258.67 667.604 1121.97 670.041C985.267 672.477 854.434 726.021 755.245 820.122C656.056 914.224 595.704 1042.06 586.08 1178.44L260.937 1155.5Z"/>
</mask>
<path d="M260.937 1155.5C276.296 937.844 372.611 733.831 530.906 583.655C689.201 433.479 897.997 348.029 1116.16 344.141C1334.32 340.252 1546.03 418.206 1709.58 562.645C1873.13 707.084 1976.65 907.534 1999.76 1124.5L1675.64 1159.02C1661.16 1023.07 1596.29 897.463 1493.81 806.957C1391.33 716.45 1258.67 667.604 1121.97 670.041C985.267 672.477 854.434 726.021 755.245 820.122C656.056 914.224 595.704 1042.06 586.08 1178.44L260.937 1155.5Z" fill="#B5B5B5" fill-opacity="0.16" stroke="white" stroke-opacity="0.24" stroke-width="12" mask="url(#path-1-inside-1_112_1126)"/>
<mask id="path-2-inside-2_112_1126" fill="white">
<path d="M1955.8 1459.36C1890.6 1642.32 1772.95 1801.39 1619.44 1914.09C1465.93 2026.8 1284.32 2087.46 1100.26 2087.51C916.192 2087.56 738.961 2027 593.585 1914.37C448.208 1801.75 342.029 1642.74 290.036 1459.81L606.951 1349.55C639.409 1463.74 705.693 1563.01 796.447 1633.31C887.201 1703.62 997.841 1741.43 1112.75 1741.4C1227.66 1741.37 1341.03 1703.5 1436.86 1633.14C1532.69 1562.78 1606.14 1463.48 1646.84 1349.26L1955.8 1459.36Z"/>
</mask>
<path d="M1955.8 1459.36C1890.6 1642.32 1772.95 1801.39 1619.44 1914.09C1465.93 2026.8 1284.32 2087.46 1100.26 2087.51C916.192 2087.56 738.961 2027 593.585 1914.37C448.208 1801.75 342.029 1642.74 290.036 1459.81L606.951 1349.55C639.409 1463.74 705.693 1563.01 796.447 1633.31C887.201 1703.62 997.841 1741.43 1112.75 1741.4C1227.66 1741.37 1341.03 1703.5 1436.86 1633.14C1532.69 1562.78 1606.14 1463.48 1646.84 1349.26L1955.8 1459.36Z" fill="#B5B5B5" fill-opacity="0.16" stroke="white" stroke-opacity="0.24" stroke-width="12" mask="url(#path-2-inside-2_112_1126)"/>
<circle cx="1129.94" cy="1164.64" r="273.371" fill="#B5B5B5" fill-opacity="0.16"/>
<circle cx="1129.94" cy="1164.64" r="270.371" stroke="white" stroke-opacity="0.24" stroke-width="6"/>
</svg>
